<svg width="294" height="243" viewBox="0 0 294 243" fill="none" xmlns="http://www.w3.org/2000/svg">
<path d="M204.772 243C204.117 242.999 203.473 242.829 202.903 242.505L94.8701 181.428C93.9919 180.93 93.3471 180.104 93.0771 179.131C92.807 178.158 92.9338 177.118 93.4296 176.239L178.519 25.7344C178.765 25.2991 179.095 24.9165 179.489 24.6085C179.883 24.3004 180.333 24.073 180.815 23.9393C181.297 23.8055 181.8 23.768 182.297 23.8288C182.793 23.8897 183.272 24.0477 183.708 24.2939L291.741 85.3719C292.619 85.8696 293.264 86.6954 293.534 87.668C293.804 88.6406 293.677 89.6807 293.182 90.5601L208.091 241.064C207.846 241.501 207.517 241.884 207.123 242.192C206.729 242.5 206.278 242.727 205.796 242.86C205.462 242.953 205.118 243 204.772 243Z" fill="#E6E6E6"/>
<path d="M175.506 31.6309L175.072 32.3988L289.248 96.9497L289.682 96.1818L175.506 31.6309Z" fill="white"/>
<path d="M167.692 45.4527L167.258 46.2206L281.434 110.772L281.868 110.004L167.692 45.4527Z" fill="white"/>
<path d="M159.878 59.2746L159.443 60.0424L273.619 124.593L274.054 123.825L159.878 59.2746Z" fill="white"/>
<path d="M152.063 73.0964L151.629 73.8643L265.805 138.415L266.239 137.647L152.063 73.0964Z" fill="white"/>
<path d="M144.249 86.9183L143.815 87.6861L257.991 152.237L258.425 151.469L144.249 86.9183Z" fill="white"/>
<path d="M136.434 100.74L136 101.508L250.176 166.059L250.61 165.291L136.434 100.74Z" fill="white"/>
<path d="M128.62 114.562L128.186 115.33L242.362 179.881L242.796 179.113L128.62 114.562Z" fill="white"/>
<path d="M120.806 128.384L120.372 129.152L234.548 193.703L234.982 192.935L120.806 128.384Z" fill="white"/>
<path d="M112.991 142.206L112.557 142.973L226.733 207.524L227.167 206.756L112.991 142.206Z" fill="white"/>
<path d="M105.177 156.027L104.743 156.795L218.919 221.346L219.353 220.578L105.177 156.027Z" fill="white"/>
<path d="M97.3627 169.849L96.9285 170.617L211.105 235.168L211.539 234.4L97.3627 169.849Z" fill="white"/>
<path d="M194.722 220.109C194.067 220.108 193.423 219.938 192.853 219.614L84.8202 158.536C83.9421 158.038 83.2973 157.213 83.0273 156.24C82.7572 155.267 82.884 154.227 83.3797 153.348L168.47 2.84324C168.716 2.40789 169.045 2.02528 169.439 1.71726C169.833 1.40923 170.283 1.18184 170.765 1.04806C171.247 0.914289 171.75 0.876757 172.247 0.93761C172.743 0.998462 173.223 1.15651 173.658 1.40272L281.691 62.4807C282.569 62.9784 283.214 63.8042 283.484 64.7768C283.754 65.7494 283.627 66.7895 283.132 67.6689L198.042 218.173C197.797 218.609 197.468 218.993 197.074 219.301C196.679 219.609 196.228 219.836 195.746 219.969C195.412 220.061 195.068 220.109 194.722 220.109Z" fill="#F2F2F2"/>
<path d="M165.456 8.73968L165.022 9.50755L279.198 74.0585L279.632 73.2906L165.456 8.73968Z" fill="white"/>
<path d="M157.642 22.5615L157.208 23.3294L271.384 87.8803L271.818 87.1125L157.642 22.5615Z" fill="white"/>
<path d="M149.828 36.3833L149.394 37.1512L263.57 101.702L264.004 100.934L149.828 36.3833Z" fill="white"/>
<path d="M142.013 50.2052L141.579 50.9731L255.755 115.524L256.189 114.756L142.013 50.2052Z" fill="white"/>
<path d="M134.199 64.0271L133.765 64.7949L247.941 129.346L248.375 128.578L134.199 64.0271Z" fill="white"/>
<path d="M126.385 77.8489L125.951 78.6167L240.126 143.168L240.561 142.4L126.385 77.8489Z" fill="white"/>
<path d="M118.57 91.6707L118.136 92.4386L232.312 156.99L232.746 156.222L118.57 91.6707Z" fill="white"/>
<path d="M110.756 105.493L110.322 106.26L224.498 170.811L224.932 170.043L110.756 105.493Z" fill="white"/>
<path d="M102.942 119.314L102.507 120.082L216.683 184.633L217.118 183.865L102.942 119.314Z" fill="white"/>
<path d="M95.1272 133.136L94.6931 133.904L208.869 198.455L209.303 197.687L95.1272 133.136Z" fill="white"/>
<path d="M87.3129 146.958L86.8787 147.726L201.055 212.277L201.489 211.509L87.3129 146.958Z" fill="white"/>
<path d="M183.956 0H11.3024V240.079H183.956C184.576 240.079 185.171 239.832 185.61 239.394C186.048 238.955 186.295 238.36 186.295 237.74V2.33843C186.295 1.71824 186.048 1.12346 185.61 0.684928C185.171 0.246391 184.576 1.33263e-05 183.956 0ZM21.0458 233.453C20.1979 233.453 19.3691 233.202 18.6641 232.73C17.959 232.259 17.4095 231.59 17.0851 230.806C16.7606 230.023 16.6757 229.161 16.8411 228.329C17.0065 227.498 17.4148 226.734 18.0144 226.134C18.614 225.535 19.3779 225.127 20.2095 224.961C21.0411 224.796 21.9031 224.881 22.6865 225.205C23.4698 225.53 24.1394 226.079 24.6105 226.784C25.0815 227.489 25.333 228.318 25.333 229.166C25.333 229.729 25.2221 230.286 25.0066 230.806C24.7912 231.327 24.4754 231.799 24.0773 232.197C23.6792 232.595 23.2066 232.911 22.6865 233.127C22.1663 233.342 21.6088 233.453 21.0458 233.453ZM21.0458 211.628C20.1979 211.628 19.3691 211.376 18.6641 210.905C17.959 210.434 17.4096 209.765 17.0851 208.981C16.7606 208.198 16.6757 207.336 16.8411 206.504C17.0065 205.673 17.4148 204.909 18.0144 204.309C18.614 203.71 19.3779 203.301 20.2095 203.136C21.0411 202.97 21.9031 203.055 22.6865 203.38C23.4698 203.704 24.1394 204.254 24.6105 204.959C25.0815 205.664 25.333 206.493 25.333 207.341C25.333 207.904 25.2221 208.461 25.0066 208.981C24.7912 209.501 24.4754 209.974 24.0773 210.372C23.6792 210.77 23.2066 211.086 22.6865 211.301C22.1663 211.517 21.6088 211.628 21.0458 211.628ZM21.0458 189.802C20.1979 189.802 19.3691 189.551 18.6641 189.08C17.959 188.609 17.4096 187.939 17.0851 187.156C16.7606 186.372 16.6757 185.51 16.8411 184.679C17.0065 183.847 17.4148 183.083 18.0144 182.484C18.614 181.884 19.3779 181.476 20.2095 181.31C21.0411 181.145 21.9031 181.23 22.6865 181.554C23.4698 181.879 24.1394 182.428 24.6105 183.133C25.0815 183.838 25.333 184.667 25.333 185.515C25.333 186.078 25.2221 186.636 25.0066 187.156C24.7912 187.676 24.4754 188.149 24.0773 188.547C23.6792 188.945 23.2066 189.261 22.6865 189.476C22.1663 189.691 21.6088 189.802 21.0458 189.802ZM21.0458 167.977C20.1979 167.977 19.3691 167.726 18.6641 167.255C17.959 166.783 17.4096 166.114 17.0851 165.331C16.7606 164.547 16.6757 163.685 16.8411 162.854C17.0065 162.022 17.4148 161.258 18.0144 160.658C18.614 160.059 19.3779 159.651 20.2095 159.485C21.0411 159.32 21.9031 159.405 22.6865 159.729C23.4698 160.054 24.1394 160.603 24.6105 161.308C25.0815 162.013 25.333 162.842 25.333 163.69C25.333 164.253 25.2221 164.81 25.0066 165.331C24.7912 165.851 24.4754 166.323 24.0773 166.721C23.6792 167.119 23.2066 167.435 22.6865 167.651C22.1663 167.866 21.6088 167.977 21.0458 167.977ZM21.0458 146.152C20.1979 146.152 19.3691 145.9 18.6641 145.429C17.959 144.958 17.4096 144.289 17.0851 143.505C16.7606 142.722 16.6757 141.86 16.8411 141.028C17.0065 140.197 17.4148 139.433 18.0144 138.833C18.614 138.234 19.3779 137.825 20.2095 137.66C21.0411 137.494 21.9031 137.579 22.6865 137.904C23.4698 138.228 24.1394 138.778 24.6105 139.483C25.0815 140.188 25.333 141.017 25.333 141.865C25.333 142.428 25.2221 142.985 25.0066 143.505C24.7912 144.025 24.4754 144.498 24.0773 144.896C23.6792 145.294 23.2066 145.61 22.6865 145.825C22.1663 146.041 21.6088 146.152 21.0458 146.152ZM21.0458 124.326C20.1979 124.326 19.3691 124.075 18.6641 123.604C17.959 123.133 17.4096 122.463 17.0851 121.68C16.7606 120.897 16.6757 120.035 16.8411 119.203C17.0065 118.371 17.4148 117.607 18.0144 117.008C18.614 116.408 19.3779 116 20.2095 115.835C21.0411 115.669 21.9031 115.754 22.6865 116.078C23.4698 116.403 24.1394 116.952 24.6105 117.657C25.0815 118.362 25.333 119.191 25.333 120.039C25.333 120.602 25.2221 121.16 25.0066 121.68C24.7912 122.2 24.4754 122.673 24.0773 123.071C23.6792 123.469 23.2066 123.785 22.6865 124C22.1663 124.215 21.6088 124.326 21.0458 124.326ZM21.0458 102.501C20.1979 102.501 19.3691 102.25 18.6641 101.779C17.959 101.307 17.4096 100.638 17.0851 99.8546C16.7606 99.0712 16.6757 98.2092 16.8411 97.3776C17.0065 96.5459 17.4148 95.7821 18.0144 95.1825C18.614 94.5829 19.3779 94.1746 20.2095 94.0092C21.0411 93.8438 21.9031 93.9287 22.6865 94.2532C23.4698 94.5777 24.1394 95.1271 24.6105 95.8321C25.0815 96.5372 25.333 97.366 25.333 98.2139C25.333 98.7769 25.2221 99.3344 25.0066 99.8546C24.7912 100.375 24.4754 100.847 24.0773 101.245C23.6792 101.643 23.2066 101.959 22.6865 102.175C22.1663 102.39 21.6088 102.501 21.0458 102.501ZM21.0458 80.6757C20.1979 80.6757 19.3691 80.4243 18.6641 79.9532C17.959 79.4822 17.4096 78.8126 17.0851 78.0292C16.7606 77.2459 16.6757 76.3839 16.8411 75.5522C17.0065 74.7206 17.4148 73.9567 18.0144 73.3572C18.614 72.7576 19.3779 72.3493 20.2095 72.1839C21.0411 72.0185 21.9031 72.1034 22.6865 72.4278C23.4698 72.7523 24.1394 73.3018 24.6105 74.0068C25.0815 74.7118 25.333 75.5407 25.333 76.3886C25.333 76.9516 25.2221 77.5091 25.0066 78.0292C24.7912 78.5494 24.4754 79.022 24.0773 79.4201C23.6792 79.8182 23.2066 80.134 22.6865 80.3494C22.1663 80.5648 21.6088 80.6757 21.0458 80.6757ZM21.0458 58.8504C20.1979 58.8504 19.3691 58.599 18.6641 58.1279C17.959 57.6568 17.4096 56.9873 17.0851 56.2039C16.7606 55.4205 16.6757 54.5585 16.8411 53.7269C17.0065 52.8953 17.4148 52.1314 18.0144 51.5318C18.614 50.9323 19.3779 50.524 20.2095 50.3586C21.0411 50.1931 21.9031 50.278 22.6865 50.6025C23.4698 50.927 24.1394 51.4765 24.6105 52.1815C25.0815 52.8865 25.333 53.7154 25.333 54.5633C25.333 55.1263 25.2221 55.6838 25.0066 56.2039C24.7912 56.724 24.4754 57.1967 24.0773 57.5948C23.6792 57.9929 23.2066 58.3086 22.6865 58.5241C22.1663 58.7395 21.6088 58.8504 21.0458 58.8504ZM21.0458 37.0251C20.1979 37.0251 19.3691 36.7737 18.6641 36.3026C17.959 35.8315 17.4095 35.162 17.0851 34.3786C16.7606 33.5952 16.6757 32.7332 16.8411 31.9016C17.0065 31.07 17.4148 30.3061 18.0144 29.7065C18.614 29.107 19.3779 28.6986 20.2095 28.5332C21.0411 28.3678 21.9031 28.4527 22.6865 28.7772C23.4698 29.1017 24.1394 29.6512 24.6105 30.3562C25.0815 31.0612 25.333 31.8901 25.333 32.738C25.333 33.301 25.2221 33.8585 25.0066 34.3786C24.7912 34.8987 24.4754 35.3713 24.0773 35.7694C23.6792 36.1675 23.2066 36.4833 22.6865 36.6988C22.1663 36.9142 21.6088 37.0251 21.0458 37.0251ZM21.0458 15.1998C20.1979 15.1998 19.3691 14.9483 18.6641 14.4773C17.959 14.0062 17.4095 13.3366 17.0851 12.5533C16.7606 11.7699 16.6757 10.9079 16.8411 10.0763C17.0065 9.24466 17.4148 8.48078 18.0144 7.88121C18.614 7.28165 19.3779 6.87334 20.2095 6.70792C21.0411 6.5425 21.9031 6.62739 22.6865 6.95188C23.4698 7.27636 24.1394 7.82585 24.6105 8.53086C25.0815 9.23588 25.333 10.0647 25.333 10.9127C25.333 11.4757 25.2221 12.0331 25.0066 12.5533C24.7912 13.0734 24.4754 13.546 24.0773 13.9441C23.6792 14.3422 23.2066 14.658 22.6865 14.8734C22.1663 15.0889 21.6088 15.1998 21.0458 15.1998Z" fill="#3F3D56"/>
<path d="M11.3024 13.2511C10.1456 13.2511 0 13.1965 0 11.3024C0 9.40832 10.1456 9.3537 11.3024 9.3537V10.1332C5.32678 10.1332 1.45209 10.8021 0.828095 11.3024C1.45209 11.8027 5.32678 12.4716 11.3024 12.4716C17.2647 12.4716 21.1354 11.8055 21.7724 11.3058C21.4692 11.0917 20.2308 10.643 16.9091 10.3558L16.9762 9.57941C22.6048 10.0658 22.6048 10.9642 22.6048 11.3024C22.6048 13.1965 12.4592 13.2511 11.3024 13.2511Z" fill="#2F2E41"/>
<path d="M11.3024 34.6867C10.1456 34.6867 0 34.632 0 32.738C0 30.8439 10.1456 30.7893 11.3024 30.7893V31.5688C5.32678 31.5688 1.45209 32.2377 0.828095 32.738C1.45209 33.2383 5.32678 33.9072 11.3024 33.9072C17.2647 33.9072 21.1354 33.2411 21.7724 32.7414C21.4692 32.5273 20.2308 32.0786 16.9091 31.7915L16.9762 31.015C22.6048 31.5014 22.6048 32.3998 22.6048 32.738C22.6048 34.6321 12.4592 34.6867 11.3024 34.6867Z" fill="#2F2E41"/>
<path d="M11.3024 56.512C10.1456 56.512 0 56.4574 0 54.5633C0 52.6692 10.1456 52.6146 11.3024 52.6146V53.3941C5.32678 53.3941 1.45209 54.063 0.828095 54.5633C1.45209 55.0636 5.32678 55.7325 11.3024 55.7325C17.2647 55.7325 21.1354 55.0664 21.7724 54.5667C21.4692 54.3527 20.2308 53.9039 16.9091 53.6168L16.9762 52.8403C22.6048 53.3267 22.6048 54.2252 22.6048 54.5633C22.6048 56.4574 12.4592 56.512 11.3024 56.512Z" fill="#2F2E41"/>
<path d="M11.3024 78.3373C10.1456 78.3373 0 78.2827 0 76.3886C0 74.4945 10.1456 74.4399 11.3024 74.4399V75.2194C5.32678 75.2194 1.45209 75.8883 0.828095 76.3886C1.45209 76.8889 5.32678 77.5578 11.3024 77.5578C17.2647 77.5578 21.1354 76.8918 21.7724 76.3921C21.4692 76.178 20.2308 75.7292 16.9091 75.4421L16.9762 74.6657C22.6048 75.1521 22.6048 76.0505 22.6048 76.3886C22.6048 78.2827 12.4592 78.3373 11.3024 78.3373Z" fill="#2F2E41"/>
<path d="M11.3024 100.163C10.1456 100.163 0 100.108 0 98.2139C0 96.3199 10.1456 96.2652 11.3024 96.2652V97.0447C5.32678 97.0447 1.45209 97.7136 0.828095 98.2139C1.45209 98.7142 5.32678 99.3832 11.3024 99.3832C17.2647 99.3832 21.1354 98.7171 21.7724 98.2174C21.4692 98.0033 20.2308 97.5546 16.9091 97.2674L16.9762 96.491C22.6048 96.9774 22.6048 97.8758 22.6048 98.2139C22.6048 100.108 12.4592 100.163 11.3024 100.163Z" fill="#2F2E41"/>
<path d="M11.3024 121.988C10.1456 121.988 0 121.933 0 120.039C0 118.145 10.1456 118.091 11.3024 118.091V118.87C5.32678 118.87 1.45209 119.539 0.828095 120.039C1.45209 120.54 5.32678 121.208 11.3024 121.208C17.2647 121.208 21.1354 120.542 21.7724 120.043C21.4692 119.829 20.2308 119.38 16.9091 119.093L16.9762 118.316C22.6048 118.803 22.6048 119.701 22.6048 120.039C22.6048 121.933 12.4592 121.988 11.3024 121.988Z" fill="#2F2E41"/>
<path d="M11.3024 143.813C10.1456 143.813 0 143.759 0 141.865C0 139.971 10.1456 139.916 11.3024 139.916V140.695C5.32678 140.695 1.45209 141.364 0.828095 141.865C1.45209 142.365 5.32678 143.034 11.3024 143.034C17.2647 143.034 21.1354 142.368 21.7724 141.868C21.4692 141.654 20.2308 141.205 16.9091 140.918L16.9762 140.142C22.6048 140.628 22.6048 141.526 22.6048 141.865C22.6048 143.759 12.4592 143.813 11.3024 143.813Z" fill="#2F2E41"/>
<path d="M11.3024 165.639C10.1456 165.639 0 165.584 0 163.69C0 161.796 10.1456 161.741 11.3024 161.741V162.521C5.32678 162.521 1.45209 163.19 0.828095 163.69C1.45209 164.19 5.32678 164.859 11.3024 164.859C17.2647 164.859 21.1354 164.193 21.7724 163.693C21.4692 163.479 20.2308 163.03 16.9091 162.743L16.9762 161.967C22.6048 162.453 22.6048 163.352 22.6048 163.69C22.6048 165.584 12.4592 165.639 11.3024 165.639Z" fill="#2F2E41"/>
<path d="M11.3024 187.464C10.1456 187.464 0 187.409 0 185.515C0 183.621 10.1456 183.567 11.3024 183.567V184.346C5.32678 184.346 1.45209 185.015 0.828095 185.515C1.45209 186.016 5.32678 186.684 11.3024 186.684C17.2647 186.684 21.1354 186.018 21.7724 185.519C21.4692 185.305 20.2308 184.856 16.9091 184.569L16.9762 183.792C22.6048 184.279 22.6048 185.177 22.6048 185.515C22.6048 187.409 12.4592 187.464 11.3024 187.464Z" fill="#2F2E41"/>
<path d="M11.3024 209.289C10.1456 209.289 0 209.235 0 207.341C0 205.446 10.1456 205.392 11.3024 205.392V206.171C5.32678 206.171 1.45209 206.84 0.828095 207.341C1.45209 207.841 5.32678 208.51 11.3024 208.51C17.2647 208.51 21.1354 207.844 21.7724 207.344C21.4692 207.13 20.2308 206.681 16.9091 206.394L16.9762 205.618C22.6048 206.104 22.6048 207.002 22.6048 207.341C22.6048 209.235 12.4592 209.289 11.3024 209.289Z" fill="#2F2E41"/>
<path d="M11.3024 231.115C10.1456 231.115 0 231.06 0 229.166C0 227.272 10.1456 227.217 11.3024 227.217V227.997C5.32678 227.997 1.45209 228.666 0.828095 229.166C1.45209 229.666 5.32678 230.335 11.3024 230.335C17.2647 230.335 21.1354 229.669 21.7724 229.169C21.4692 228.955 20.2308 228.506 16.9091 228.219L16.9762 227.443C22.6048 227.929 22.6048 228.828 22.6048 229.166C22.6048 231.06 12.4592 231.115 11.3024 231.115Z" fill="#2F2E41"/>
<path d="M148.685 91.7833H62.9427C62.271 91.7825 61.6271 91.5154 61.1522 91.0404C60.6773 90.5655 60.4101 89.9216 60.4094 89.25V55.7325C60.4101 55.0609 60.6773 54.417 61.1522 53.9421C61.6271 53.4671 62.271 53.2 62.9427 53.1992H148.685C149.357 53.2 150.001 53.4671 150.475 53.9421C150.95 54.417 151.218 55.0609 151.218 55.7325V89.25C151.218 89.9216 150.95 90.5655 150.475 91.0405C150.001 91.5154 149.357 91.7825 148.685 91.7833Z" fill="white"/>
<path d="M116.726 64.6965H94.9011C94.3843 64.6965 93.8887 64.4912 93.5232 64.1257C93.1578 63.7603 92.9525 63.2646 92.9525 62.7478C92.9525 62.231 93.1578 61.7353 93.5232 61.3699C93.8887 61.0044 94.3843 60.7991 94.9011 60.7991H116.726C117.243 60.7991 117.739 61.0044 118.104 61.3699C118.47 61.7353 118.675 62.231 118.675 62.7478C118.675 63.2646 118.47 63.7603 118.104 64.1257C117.739 64.4912 117.243 64.6965 116.726 64.6965H116.726Z" fill="#6C63FF"/>
<path d="M128.808 74.4399H82.8193C82.3025 74.4399 81.8068 74.2346 81.4414 73.8692C81.0759 73.5037 80.8706 73.0081 80.8706 72.4912C80.8706 71.9744 81.0759 71.4788 81.4414 71.1133C81.8068 70.7479 82.3025 70.5426 82.8193 70.5426H128.808C129.325 70.5426 129.821 70.7479 130.186 71.1133C130.552 71.4788 130.757 71.9744 130.757 72.4912C130.757 73.0081 130.552 73.5037 130.186 73.8692C129.821 74.2346 129.325 74.4399 128.808 74.4399Z" fill="#6C63FF"/>
<path d="M128.808 84.1834H82.8193C82.3025 84.1834 81.8068 83.9781 81.4414 83.6126C81.0759 83.2472 80.8706 82.7515 80.8706 82.2347C80.8706 81.7179 81.0759 81.2222 81.4414 80.8568C81.8068 80.4913 82.3025 80.286 82.8193 80.286H128.808C129.325 80.286 129.821 80.4913 130.186 80.8568C130.552 81.2222 130.757 81.7179 130.757 82.2347C130.757 82.7515 130.552 83.2472 130.186 83.6126C129.821 83.9781 129.325 84.1834 128.808 84.1834Z" fill="#6C63FF"/>
</svg>
