<svg width="258" height="239" viewBox="0 0 258 239" fill="none" xmlns="http://www.w3.org/2000/svg">
<path d="M128.692 239C199.767 239 257.385 231.77 257.385 222.851C257.385 213.933 199.767 206.703 128.692 206.703C57.6175 206.703 0 213.933 0 222.851C0 231.77 57.6175 239 128.692 239Z" fill="#3F3D56"/>
<path d="M162.565 18.2411C152.287 0.874848 131.953 0.065509 131.953 0.065509C131.953 0.065509 112.139 -2.4683 99.4283 23.9808C87.581 48.6334 71.2302 72.4361 96.796 78.2071L101.414 63.8341L104.274 79.2772C107.914 79.539 111.566 79.6014 115.212 79.4641C142.591 78.5802 168.666 79.7227 167.826 69.898C166.71 56.8375 172.454 34.951 162.565 18.2411Z" fill="#2F2E41"/>
<path d="M95.3362 170.326C95.0344 172.236 94.5962 174.122 94.0252 175.97C93.382 177.778 92.3891 179.451 91.801 181.278C89.9266 187.102 92.5251 193.596 96.6754 198.091C100.274 201.974 104.92 204.733 110.052 206.034C113.796 206.976 117.689 207.112 121.548 207.242C132.232 207.605 143.191 207.929 153.315 204.495C156.514 203.384 159.603 201.98 162.544 200.302C163.473 199.86 164.291 199.216 164.939 198.417C165.711 197.317 165.81 195.892 165.804 194.548C165.781 190.019 164.863 185.513 165.081 180.989C165.201 178.483 165.67 175.979 165.439 173.48C165.12 170.643 163.931 167.974 162.036 165.838C160.142 163.702 157.633 162.204 154.854 161.549C151.982 160.933 149.003 161.269 146.079 161.55C138.489 162.279 130.867 162.62 123.243 162.571C115.452 162.521 107.71 161.332 99.9586 161.208C97.6662 161.171 97.7125 161.878 96.9827 164.096C96.3105 166.138 95.7607 168.218 95.3362 170.326Z" fill="#2F2E41"/>
<path d="M117.445 58.4851C117.07 60.4453 116.666 62.4773 115.488 64.0882C114.132 65.9416 111.923 67.0006 110.465 68.7743C108.27 71.4442 108.144 75.2011 108.135 78.6572C108.127 81.841 108.191 85.2368 109.967 87.8796C111.119 89.5948 112.872 90.7973 114.586 91.9521C121.244 96.4392 128.439 101.007 136.467 101.155C139.793 101.216 143.36 100.357 145.548 97.8517C146.493 96.6749 147.236 95.3493 147.747 93.929C149.8 88.869 151.044 83.5178 151.434 78.0713C151.617 75.5089 151.6 72.8717 150.732 70.4535C149.757 67.7345 147.785 65.4972 146.482 62.9192C144.941 59.8537 144.378 56.3894 144.868 52.9937C144.932 52.7546 144.912 52.5004 144.811 52.2744C144.704 52.1534 144.57 52.0589 144.42 51.9982C144.27 51.9375 144.109 51.9123 143.947 51.9245L128.03 50.7786C126.547 50.7049 125.071 50.536 123.61 50.273C122.752 50.0985 120.485 48.8798 119.667 49.2039C118.153 49.8038 117.755 56.8595 117.445 58.4851Z" fill="#FFB8B8"/>
<path opacity="0.1" d="M117.445 58.4851C117.07 60.4453 116.666 62.4773 115.488 64.0882C114.132 65.9416 111.923 67.0006 110.465 68.7743C108.27 71.4442 108.144 75.2011 108.135 78.6572C108.127 81.841 108.191 85.2368 109.967 87.8796C111.119 89.5948 112.872 90.7973 114.586 91.9521C121.244 96.4392 128.439 101.007 136.467 101.155C139.793 101.216 143.36 100.357 145.548 97.8517C146.493 96.6749 147.236 95.3493 147.747 93.929C149.8 88.869 151.044 83.5178 151.434 78.0713C151.617 75.5089 151.6 72.8717 150.732 70.4535C149.757 67.7345 147.785 65.4972 146.482 62.9192C144.941 59.8537 144.378 56.3894 144.868 52.9937C144.932 52.7546 144.912 52.5004 144.811 52.2744C144.704 52.1534 144.57 52.0589 144.42 51.9982C144.27 51.9375 144.109 51.9123 143.947 51.9245L128.03 50.7786C126.547 50.7049 125.071 50.536 123.61 50.273C122.752 50.0985 120.485 48.8798 119.667 49.2039C118.153 49.8038 117.755 56.8595 117.445 58.4851Z" fill="black"/>
<path d="M132.667 60.6196C145.565 60.6196 156.021 50.1639 156.021 37.2662C156.021 24.3684 145.565 13.9127 132.667 13.9127C119.77 13.9127 109.314 24.3684 109.314 37.2662C109.314 50.1639 119.77 60.6196 132.667 60.6196Z" fill="#FFB8B8"/>
<path d="M120.72 89.5721C121.937 90.8444 123.227 92.1041 124.822 92.8498C126.446 93.521 128.19 93.853 129.947 93.8255C134.156 93.944 138.72 93.1726 141.648 90.1461C145.423 86.2449 145.299 79.9525 148.258 75.4011C148.496 74.9885 148.821 74.6326 149.211 74.3583C149.708 74.0881 150.268 73.9592 150.833 73.9855C154.57 73.9505 157.825 76.3742 160.763 78.684C162.079 79.7188 163.428 80.7908 164.258 82.2445C164.839 83.378 165.237 84.5962 165.437 85.8541C166.895 92.971 167.367 100.248 167.836 107.497C168.094 111.502 168.353 115.51 168.334 119.522C168.271 132.742 165.198 145.741 162.143 158.603C161.749 160.26 161.21 162.112 159.703 162.906C159.031 163.208 158.31 163.384 157.574 163.426C148.822 164.453 140.053 165.483 131.242 165.618C127.803 165.671 124.366 165.588 120.931 165.369C120.339 165.361 119.753 165.259 119.194 165.066C118.435 164.701 117.783 164.148 117.3 163.458C112.534 157.452 112.253 149.149 112.284 141.482C112.358 122.737 113.028 104.007 114.293 85.2924C114.397 83.7477 114.42 81.8716 113.307 80.6565C115.311 83.8649 118.099 86.8321 120.72 89.5721Z" fill="#D0CDE1"/>
<path d="M115.773 62.6071C114.985 64.0349 109.17 67.5803 108.047 68.7636C101.774 75.3752 90.3261 75.1271 84.5894 82.2087C82.5711 84.7002 81.5225 87.8308 80.7512 90.9431C79.6604 95.345 79.078 100.146 80.9053 104.296C82.6635 108.29 86.3648 111.051 88.8777 114.618C91.6368 118.535 92.8774 123.291 94.0663 127.933C94.9441 131.36 95.8292 134.872 95.4873 138.393C95.0986 142.396 93.1613 146.062 92.0175 149.918C90.8736 153.775 90.6762 158.367 93.3209 161.398C95.2639 163.624 98.3116 164.507 101.225 165.003C104.956 165.564 108.718 165.892 112.49 165.984C115.82 166.131 119.49 166.16 122.05 164.025C124.07 162.341 124.948 159.607 125.062 156.98C125.175 154.352 124.629 151.748 124.286 149.14C123.931 146.437 123.795 143.71 123.681 140.986C123.168 128.763 123.099 116.533 123.471 104.294C123.549 101.748 123.643 99.1699 123.1 96.6807C122.385 93.4069 120.616 90.4811 119.14 87.4731C116.209 81.5025 114.823 75.7026 115.276 69.0666C115.724 62.5165 118.58 57.5263 115.773 62.6071Z" fill="#6C63FF"/>
<path d="M148.568 63.1039C149.769 64.3387 153.851 64.7458 155.38 65.541C156.817 66.2051 158.317 66.7244 159.858 67.0914C165.432 68.6996 170.735 71.1333 175.589 74.3115C176.597 74.9015 177.489 75.6717 178.219 76.5837C179.074 77.7732 179.385 79.2573 179.675 80.6931C180.423 84.3999 181.175 88.1514 181.007 91.9293C180.828 95.9394 179.62 99.8232 178.422 103.654L173.945 117.969C170.602 128.654 167.239 139.444 166.299 150.6C165.778 156.783 166.01 163.006 166.987 169.133C167.086 169.749 167.168 170.456 166.762 170.929C166.467 171.22 166.079 171.399 165.665 171.433C163.504 171.771 161.413 170.669 159.455 169.694C153.47 166.716 147.084 164.626 140.496 163.491C143.07 159.771 145.056 155.676 146.385 151.352C147.139 148.606 147.733 145.818 148.164 143.004L150.247 130.957C151.094 126.553 151.691 122.106 152.033 117.635C152.191 115.957 152.093 114.265 151.744 112.616C151.264 111.048 150.626 109.531 149.841 108.091C146.408 100.95 144.798 92.8016 146.148 84.9949C146.739 81.5784 147.888 78.1573 147.409 74.7234C146.949 71.4217 147.427 68.8558 146.58 65.5884C143.102 52.1726 146.307 60.7809 148.568 63.1039Z" fill="#6C63FF"/>
<path d="M84.5301 93.4983C82.9651 96.7458 80.3488 99.5124 79.4583 103.006C79.1118 104.638 78.9633 106.306 79.0161 107.975C78.995 110.489 78.9813 113.054 79.7532 115.446C80.2502 116.987 81.0588 118.407 81.6413 119.918C82.4533 122.027 82.815 124.284 82.7033 126.542C82.5461 129.67 81.4834 132.706 81.4004 135.837C81.2698 140.761 83.5471 145.39 85.7693 149.786C86.3286 148.4 87.1838 147.154 88.2751 146.134C89.3663 145.114 90.6672 144.345 92.0868 143.88C93.5064 143.415 95.0105 143.266 96.4937 143.444C97.9769 143.621 99.4035 144.12 100.674 144.906C101.26 144.365 101.322 143.476 101.345 142.678C101.51 136.966 101.668 131.253 101.821 125.541C102.061 116.706 102.29 107.753 100.258 99.1513C99.3404 95.2677 97.9126 91.3992 95.2951 88.387C93.9168 86.801 89.2381 82.6232 86.9756 84.4C85.9582 85.1991 86.196 87.3741 86.0348 88.4755C85.7915 90.2166 85.284 91.9103 84.5301 93.4983Z" fill="#6C63FF"/>
<path d="M181.464 84.1398C182.204 86.4447 182.249 88.9075 182.263 91.3283C182.294 96.2664 182.228 101.204 182.067 106.141C181.985 108.668 181.871 111.23 181.105 113.64C180.6 115.229 179.82 116.719 179.298 118.303C177.734 123.05 178.588 128.198 178.722 133.194C178.817 134.811 178.679 136.434 178.313 138.011C177.487 141.108 175.269 143.611 173.72 146.418C172.25 149.083 171.363 152.071 169.606 154.557C167.85 157.043 164.81 159.013 161.863 158.25C159.63 157.672 158.043 155.695 156.946 153.667C154.551 149.206 153.732 144.068 154.622 139.084C155.723 133.02 159.285 127.641 160.57 121.614C162.334 113.336 159.653 104.795 159.733 96.3319C159.696 95.0053 159.876 93.6817 160.265 92.413C160.939 90.4799 162.386 88.9362 163.723 87.3859C165.394 85.4484 166.946 83.4117 168.37 81.287C169.327 79.8597 170.627 76.1886 172.324 75.8834C176.112 75.2019 180.524 81.2131 181.464 84.1398Z" fill="#6C63FF"/>
<path d="M64.8731 166.645C62.7782 166.118 60.6197 165.889 58.461 165.963C56.1928 166.088 53.9773 166.695 51.9618 167.743C49.9463 168.791 48.177 170.256 46.7715 172.041C45.366 173.825 44.3566 175.889 43.8103 178.094C43.264 180.299 43.1934 182.595 43.6031 184.829C44.1262 187.249 44.9813 189.586 46.144 191.772C47.8445 195.223 49.884 198.666 53.0321 200.877C54.8736 202.171 57.005 202.978 59.111 203.771L75.6913 210.017C78.1304 210.936 80.5699 211.855 83.0332 212.707C95.4086 216.985 108.311 219.55 121.381 220.331C125.362 220.568 129.404 220.634 133.288 219.727C134.209 219.512 135.193 219.192 135.726 218.41C136.042 217.859 136.229 217.244 136.271 216.61L137.291 209.468C137.435 208.462 137.573 207.404 137.205 206.457C136.737 205.257 135.566 204.501 134.449 203.86C123.548 197.599 110.821 194.145 101.646 185.553C99.4859 183.53 97.6784 180.323 95.0541 178.949C92.0781 177.391 88.5734 176.502 85.4974 175.066C78.7728 171.927 72.1612 168.32 64.8731 166.645Z" fill="#2F2E41"/>
<path opacity="0.1" d="M81.4261 176.274C87.2865 178.11 112.029 190.832 116.27 195.274C115.702 195.479 96.4144 184.67 95.8356 184.497C90.5749 182.918 85.2849 181.329 80.289 179.018C79.284 178.553 73.7597 176.368 74.0099 175.1C74.2922 173.669 80.3857 175.948 81.4261 176.274Z" fill="black"/>
<path d="M154.539 224.035C154.871 224.059 155.201 223.962 155.468 223.762C155.585 223.612 155.67 223.44 155.72 223.256C155.77 223.073 155.783 222.881 155.758 222.693C155.749 219.449 155.74 216.205 155.731 212.962C152.933 211.629 149.803 211.201 146.73 210.791L132.396 208.875C132.725 208.919 130.155 215.049 130.549 215.867C131.244 217.309 136.553 218.588 138.051 219.269C143.26 221.636 148.672 224.239 154.539 224.035Z" fill="#FFB8B8"/>
<path d="M109.565 212.928C106.858 213.359 103.838 213.74 102.085 215.847C99.8622 218.519 100.808 222.502 101.869 225.811C102.026 226.481 102.343 227.103 102.791 227.625C103.514 228.338 104.623 228.443 105.638 228.507C108.106 228.664 110.733 228.786 112.889 227.575C113.866 226.93 114.806 226.231 115.706 225.481C117.296 224.423 119.045 223.624 120.885 223.114C124.269 222.049 127.753 221.331 131.282 220.971C132.672 220.908 134.049 220.665 135.377 220.249C136.678 219.759 137.883 218.787 138.261 217.449C138.761 215.681 137.733 213.878 136.747 212.327C135.52 210.395 134.219 208.361 132.388 206.939C129.717 204.864 128.396 206.457 125.705 207.784C120.613 210.298 115.172 212.032 109.565 212.928Z" fill="#FFB8B8"/>
<path d="M102.492 215.366L85.3071 210.287C83.217 209.669 81.0913 209.046 78.9119 209.047C76.7325 209.049 74.4523 209.764 73.0389 211.423C71.7063 212.987 71.3249 215.124 70.9927 217.152L70.282 221.489C69.9209 223.694 69.5591 225.94 69.8841 228.15C70.2092 230.36 71.3373 232.568 73.2981 233.638C75.6762 234.935 78.5908 234.301 81.2449 233.759C86.6059 232.663 92.0588 232.078 97.5302 232.012C99.5872 231.988 101.745 232.013 103.562 231.05C105.723 229.905 107.015 227.484 107.238 225.049C107.576 221.343 106.341 216.504 102.492 215.366Z" fill="#2F2E41"/>
<path d="M161.294 210.94C163.522 210.549 165.488 209.283 167.622 208.536C170.627 207.484 173.883 207.484 177.067 207.496C178.235 207.5 179.48 207.526 180.453 208.174C181.855 209.107 182.214 210.975 182.453 212.643L183.891 222.705C184.162 224.597 184.431 226.54 184.009 228.405C183.587 230.27 182.316 232.067 180.466 232.548C178.219 233.132 176.016 231.697 173.894 230.754C168.591 228.397 162.426 228.999 156.897 227.238C155.87 226.911 154.771 226.411 154.353 225.419C154.164 224.86 154.096 224.267 154.155 223.68C154.25 220.446 153.567 216.03 154.541 212.939C155.417 210.159 158.807 210.94 161.294 210.94Z" fill="#2F2E41"/>
<path d="M197.661 162.595C201.095 161.734 204.655 161.491 208.174 161.877C210.984 162.186 213.88 162.968 215.931 164.914C218.429 167.281 219.231 170.943 219.298 174.383C219.408 181.236 217.135 187.915 212.868 193.278C211.826 194.635 210.586 195.828 209.191 196.818C207.686 197.759 206.082 198.532 204.408 199.123L167.277 213.768C157.509 217.621 147.706 221.485 137.517 224.025C137.238 224.16 136.936 224.237 136.627 224.253C136.318 224.269 136.009 224.222 135.718 224.117C135.427 224.011 135.161 223.849 134.934 223.639C134.707 223.429 134.524 223.175 134.396 222.894C131.143 218.247 128.414 213.254 126.258 208.007C126.156 207.882 126.085 207.735 126.052 207.577C126.019 207.419 126.025 207.256 126.068 207.101C126.112 206.946 126.192 206.803 126.302 206.686C126.412 206.568 126.549 206.479 126.701 206.425L152.964 191.336C154.846 190.255 156.748 189.158 158.31 187.652C159.445 186.552 160.374 185.259 161.054 183.832C161.599 182.695 161.649 180.011 162.345 179.171C163.026 178.348 165.355 178.282 166.43 177.959C167.947 177.494 169.433 176.932 170.878 176.277C176.753 173.649 181.984 169.831 187.616 166.753C190.775 164.947 194.15 163.55 197.661 162.595Z" fill="#2F2E41"/>
<path opacity="0.1" d="M182.772 173.864C178.26 177.253 172.418 180.368 167.946 183.846C166.42 185.033 140.977 199.337 140.617 201.237C144.789 201.94 171.366 183.348 175.168 181.493C178.971 179.637 182.341 177.021 185.682 174.424C186.533 173.762 190.14 171.773 187.697 171.033C186.32 170.617 183.788 173.186 182.772 173.864Z" fill="black"/>
<path d="M158.021 16.5669L137.932 6.04446L110.19 10.3489L104.45 35.6993L118.738 35.1498L122.73 25.8362V34.9963L129.322 34.7424L133.149 19.9154L135.54 35.6993L158.977 35.2208L158.021 16.5669Z" fill="#2F2E41"/>
<path d="M153.536 68.5696H110.308V120.742H153.536V68.5696Z" fill="#3F3D56"/>
<path d="M89.7858 159.311C90.7783 160.793 91.9413 162.243 93.5356 163.042C94.5522 163.506 95.6614 163.732 96.7786 163.702C97.8958 163.672 98.9914 163.387 99.9816 162.869C101.959 161.809 103.578 160.186 104.633 158.205C106.817 154.35 107.269 149.736 106.996 145.314C106.724 140.892 105.78 136.538 105.362 132.127C105.058 128.92 105.033 125.695 105.009 122.474C104.933 121.797 105.076 121.113 105.415 120.522C105.898 119.862 106.784 119.68 107.568 119.447C111.974 118.138 114.899 114.008 116.996 109.917C118.396 107.186 119.614 104.2 119.344 101.143C119.074 98.0851 116.876 95.005 113.823 94.6931C111.305 94.4359 108.981 96.0349 107.165 97.7972C102.584 102.271 99.6402 108.154 98.8061 114.502C98.4075 117.611 98.5217 120.804 97.6761 123.822C95.8707 130.266 90.2219 134.217 87.4069 140.016C84.3051 146.405 86.0171 153.658 89.7858 159.311Z" fill="#FFB8B8"/>
<path d="M172.911 134.693C172.268 136.187 171.333 137.538 170.16 138.665C168.987 139.792 167.6 140.673 166.081 141.255C164.193 142.013 162.111 142.141 160.145 141.619C159.169 141.348 158.27 140.856 157.515 140.182C156.761 139.507 156.173 138.668 155.795 137.729C155.495 136.783 155.33 135.799 155.306 134.807C155.023 130.461 155.132 125.983 156.711 121.925C157.319 120.359 158.14 118.875 158.621 117.265C159.093 115.407 159.335 113.497 159.34 111.579L159.859 99.7222C159.945 98.8614 159.885 97.9923 159.683 97.1513C159.165 95.4357 157.562 94.3208 156.091 93.2976C152.538 90.8268 149.026 87.9435 147.305 83.973C146.713 82.7776 146.501 81.4298 146.698 80.1106C147.183 77.7562 149.559 76.2319 151.908 75.7184C153.444 75.3825 155.033 75.361 156.578 75.6554C158.123 75.9498 159.593 76.5539 160.898 77.4313C162.204 78.3088 163.318 79.4414 164.174 80.761C165.03 82.0805 165.61 83.5598 165.879 85.1095C166.111 86.4475 166.108 87.8143 166.244 89.1656C166.533 92.0319 167.443 94.7949 168.012 97.6189C169.414 104.575 168.687 111.766 170.074 118.721C171.233 124.536 175.605 128.33 172.911 134.693Z" fill="#FFB8B8"/>
</svg>
